HIERARCHY
ROOT hip
{
	OFFSET 0.000000 0.000000 0.000000 
	CHANNELS 6 Xposition Yposition Zposition Xrotation Zrotation Yrotation
	JOINT abdomen
	{
		OFFSET 0.000000 3.402643 0.000000 
		CHANNELS 3 Xrotation Zrotation Yrotation
		JOINT chest
		{
			OFFSET 0.000000 8.438565 -0.680529 
			CHANNELS 3 Xrotation Zrotation Yrotation
			JOINT neck
			{
				OFFSET 0.000000 10.207942 -0.272212 
				CHANNELS 3 Xrotation Zrotation Yrotation
				JOINT head
				{
					OFFSET 0.000000 3.130431 0.000000 
					CHANNELS 3 Xrotation Zrotation Yrotation
					End Site
					{
						OFFSET 0.000000 3.130435 0.000000 
					}
				}
			}
			JOINT lCollar
			{
				OFFSET 3.470700 6.669187 -0.816635 
				CHANNELS 3 Yrotation Zrotation Xrotation
				JOINT lShldr
				{
					OFFSET 3.198488 0.000000 0.000000 
					CHANNELS 3 Zrotation Yrotation Xrotation
					JOINT lForeArm
					{
						OFFSET 10.139888 0.000000 0.000000 
						CHANNELS 3 Yrotation Zrotation Xrotation
						JOINT lHand
						{
							OFFSET 8.370511 0.000000 0.000000 
							CHANNELS 3 Zrotation Yrotation Xrotation
							End Site
							{
								OFFSET 4.083176 0.000000 0.000000 
							}
						}
					}
				}
			}
			JOINT rCollar
			{
				OFFSET -3.470700 6.669187 -0.816635 
				CHANNELS 3 Yrotation Zrotation Xrotation
				JOINT rShldr
				{
					OFFSET -3.198488 0.000000 0.000000 
					CHANNELS 3 Zrotation Yrotation Xrotation
					JOINT rForeArm
					{
						OFFSET -10.139888 0.000000 0.000000 
						CHANNELS 3 Yrotation Zrotation Xrotation
						JOINT rHand
						{
							OFFSET -8.370511 0.000000 0.000000 
							CHANNELS 3 Zrotation Yrotation Xrotation
							End Site
							{
								OFFSET -4.083176 0.000000 0.000000 
							}
						}
					}
				}
			}
		}
	}
	JOINT lThigh
	{
		OFFSET 5.308129 -1.633274 1.361059 
		CHANNELS 3 Xrotation Zrotation Yrotation
		JOINT lShin
		{
			OFFSET -2.041588 -20.007561 0.000000 
			CHANNELS 3 Xrotation Zrotation Yrotation
			JOINT lFoot
			{
				OFFSET 0.000000 -19.190928 -1.224953 
				CHANNELS 3 Xrotation Yrotation Zrotation
				End Site
				{
					OFFSET 0.000000 -2.449906 4.627600 
				}
			}
		}
	}
	JOINT rThigh
	{
		OFFSET -5.308129 -1.633274 1.361059 
		CHANNELS 3 Xrotation Zrotation Yrotation
		JOINT rShin
		{
			OFFSET 2.041588 -20.007561 0.000000 
			CHANNELS 3 Xrotation Zrotation Yrotation
			JOINT rFoot
			{
				OFFSET 0.000000 -19.190928 -1.224953 
				CHANNELS 3 Xrotation Yrotation Zrotation
				End Site
				{
					OFFSET 0.000000 -2.449906 4.627600 
				}
			}
		}
	}
}
MOTION
Frames: 15
Frame Time: 0.016667
-0.298975 43.848476 0.046151 -7.914370 -3.395160 -3.102770 -20.333599 2.560900 0.905030 19.443300 0.732284 0.845145 25.167299 -1.296910 -4.995870 14.703000 2.444300 -1.684170 2.000000 -2.000000 0.000000 90.103401 166.272003 -0.940647 51.104000 -0.300695 0.106460 0.067617 -0.063767 -160.339996 -2.000000 2.000000 0.000000 80.102997 25.411699 -159.722000 -85.830597 0.224789 0.136363 -0.142395 0.143150 159.923996 0.302145 2.760478 -6.102911 27.305576 3.796846 1.792817 -21.075388 16.080458 4.710303 10.099907 3.671069 5.604061 9.042819 -8.220722 -0.421520 -19.682665 -9.917213 -1.776477 
-0.298664 43.839317 0.030288 -8.042700 -3.529480 -2.890620 -20.413099 2.571390 0.793922 19.335899 0.536987 0.799105 25.812201 -1.147440 -5.087760 14.976400 2.412740 -1.707380 2.000000 -2.000000 0.000000 90.123001 166.311005 -0.969853 51.055199 -0.300786 0.106387 0.067650 -0.063842 -160.369003 -2.000000 2.000000 0.000000 80.282402 28.613701 -159.227005 -83.340401 0.230704 0.135802 -0.146474 0.145142 158.302994 0.378969 2.940933 -6.095583 27.316525 3.791449 1.801131 -20.941252 15.964231 4.625828 10.270582 3.825950 5.428939 8.997394 -8.197757 -0.419477 -19.673368 -9.851217 -1.792171 
-0.333769 43.838940 0.034407 -8.109450 -3.325860 -2.739500 -20.432600 2.548270 0.760071 19.365200 0.624865 0.778021 26.090099 -1.097870 -5.132590 15.093500 2.401950 -1.723860 2.000000 -2.000000 0.000000 90.181602 166.389008 -0.872016 50.996601 -0.300894 0.106299 0.067628 -0.063792 -160.348999 -2.000000 2.000000 0.000000 80.333900 30.595501 -158.962997 -81.631401 0.234747 0.135268 -0.150607 0.156784 156.682007 0.400184 2.770481 -6.176115 27.325813 3.795910 1.802117 -20.913261 15.929275 4.621666 10.225129 3.771744 5.239285 9.274501 -8.419344 -0.461987 -19.833338 -9.803309 -1.667156 
-0.368871 43.838543 0.038525 -8.176210 -3.112630 -2.600020 -20.452200 2.528580 0.735371 19.404200 0.722510 0.756952 26.368099 -1.057400 -5.181370 15.220400 2.381470 -1.741860 2.000000 -2.000000 0.000000 90.230499 166.466995 -0.774179 50.938000 -0.301003 0.106211 0.067606 -0.063741 -160.330002 -2.000000 2.000000 0.000000 80.395401 32.577400 -158.684998 -79.912598 0.238795 0.134610 -0.154792 0.148776 155.061005 0.419734 2.576867 -6.267775 27.335674 3.795887 1.802052 -20.874292 15.896439 4.605843 10.261173 3.632245 5.064597 9.362896 -8.482590 -0.469147 -19.897314 -9.713988 -1.620938 
-0.398719 43.834679 0.047677 -8.234510 -3.063850 -2.388970 -20.462299 2.543320 0.719070 19.482300 0.693238 0.758486 26.704500 -0.845452 -5.158310 15.397100 2.456230 -1.748450 2.000000 -2.000000 0.000000 90.328201 166.621994 -0.500380 50.879398 -0.301111 0.106123 0.067639 -0.063817 -160.358994 -2.000000 2.000000 0.000000 80.652100 34.247101 -158.613007 -78.359901 0.242434 0.133912 -0.157490 0.159603 154.026001 0.437887 2.541223 -6.437958 27.357021 3.786245 1.809401 -20.847298 15.864045 4.591870 10.324160 3.666704 4.830950 9.416262 -8.540084 -0.465802 -19.945274 -9.630894 -1.587389 
-0.428566 43.830814 0.056828 -8.292810 -3.015080 -2.168260 -20.462601 2.561620 0.712250 19.560499 0.663962 0.759941 27.032000 -0.635291 -5.143040 15.583600 2.521200 -1.746340 2.000000 -2.000000 0.000000 90.426003 166.768005 -0.236368 50.811001 -0.301238 0.106020 0.067672 -0.063892 -160.389008 -2.000000 2.000000 0.000000 80.918900 35.916901 -158.526001 -76.807198 0.246052 0.133115 -0.160181 0.160605 153.000000 0.457757 2.514583 -6.617605 27.386593 3.786236 1.809217 -20.835379 15.851553 4.571535 10.390663 3.686233 4.614947 9.451884 -8.559834 -0.477246 -19.987219 -9.532804 -1.554756 
-0.437451 43.820625 0.045046 -8.381500 -3.101350 -1.877410 -20.482300 2.567080 0.699007 19.531200 0.517495 0.752457 27.290800 -0.613484 -5.198540 15.700900 2.519890 -1.770490 2.000000 -2.000000 0.000000 90.523697 166.884995 -0.001721 50.820801 -0.301220 0.106034 0.067693 -0.063942 -160.408005 -2.000000 2.000000 0.000000 81.301697 36.747398 -158.718994 -75.996597 0.247932 0.132660 -0.160001 0.160540 153.069000 0.418703 2.660087 -6.675326 27.504862 3.786333 1.808515 -20.767534 15.670081 4.493361 10.584311 3.747479 4.339645 9.258934 -8.406693 -0.451689 -19.892962 -9.463908 -1.628521 
-0.446334 43.810448 0.033263 -8.470150 -3.177920 -1.577970 -20.492201 2.560100 0.680374 19.501900 0.380795 0.744943 27.539801 -0.591606 -5.254410 15.818100 2.509020 -1.796630 2.000000 -2.000000 0.000000 90.611603 167.001007 0.232926 50.820801 -0.301220 0.106034 0.067715 -0.063992 -160.427994 -2.000000 2.000000 0.000000 81.674698 37.577801 -158.893005 -75.186096 0.249805 0.132179 -0.159821 0.160474 153.136993 0.390238 2.809123 -6.743356 27.633747 3.786639 1.827241 -20.705774 15.487667 4.394300 10.633886 3.950358 4.051426 9.395348 -8.504067 -0.453115 -19.956673 -9.452992 -1.593691 
-0.455009 43.797035 0.010926 -8.597870 -3.244450 -1.170110 -20.501499 2.551960 0.714295 19.453100 0.175749 0.758333 27.751200 -0.587304 -5.340690 15.896100 2.498580 -1.834280 2.000000 -2.000000 0.000000 90.670303 167.167007 0.418858 50.801300 -0.301256 0.106005 0.067585 -0.063691 -160.309998 -2.000000 2.000000 0.000000 82.077301 38.321098 -159.369995 -74.395103 0.251627 0.131684 -0.159282 0.160276 153.341995 0.567062 2.927848 -6.744419 27.713490 3.776295 1.814581 -20.701504 15.302146 4.368246 10.764232 4.123056 3.679759 9.455976 -8.540054 -0.467164 -19.950617 -9.473577 -1.582496 
-0.463684 43.783508 -0.011407 -8.735400 -3.310840 -0.761389 -20.510900 2.543830 0.748221 19.404301 -0.029291 0.772069 27.973000 -0.584022 -5.436140 15.964300 2.478700 -1.884170 2.000000 -2.000000 0.000000 90.738800 167.341995 0.614579 50.781700 -0.301292 0.105975 0.067444 -0.063365 -160.182999 -2.000000 2.000000 0.000000 82.470100 39.064301 -159.845993 -73.613800 0.253419 0.131170 -0.158769 0.160086 153.537003 0.579871 3.101954 -6.724363 27.793465 3.773477 1.833486 -20.519562 15.043958 4.227183 10.946938 4.269410 3.299455 9.400596 -8.514085 -0.472755 -19.898237 -9.452426 -1.621250 
-0.506411 43.782990 -0.014979 -8.782960 -3.155990 -0.528473 -20.529800 2.529850 0.794384 19.394501 0.068345 0.799406 28.035500 -0.624031 -5.509510 15.964000 2.450040 -1.919520 2.000000 -2.000000 0.000000 90.758400 167.371002 0.722069 50.820801 -0.301220 0.106034 0.067574 -0.063666 -160.300995 -2.000000 2.000000 0.000000 82.412697 39.445900 -160.151993 -73.057198 0.254691 0.130789 -0.158795 0.160096 153.528000 0.599527 3.030956 -6.749485 27.754063 3.773398 1.833712 -20.382929 14.927172 4.156503 10.951160 4.244346 3.030764 9.521598 -8.585152 -0.482745 -19.981030 -9.453961 -1.575081 
-0.549141 43.782597 -0.018554 -8.840430 -3.010750 -0.293814 -20.548800 2.528460 0.846285 19.394501 0.156218 0.817143 28.097900 -0.664001 -5.583070 15.953900 2.421480 -1.955290 2.000000 -2.000000 0.000000 90.768097 167.410004 0.819816 50.850101 -0.301166 0.106078 0.067704 -0.063967 -160.417999 -2.000000 2.000000 0.000000 82.355400 39.837200 -160.453995 -72.500504 0.255960 0.130396 -0.158795 0.160096 153.528000 0.600235 2.967529 -6.783076 27.713737 3.777494 1.824547 -20.235815 14.812062 4.074444 11.015216 4.194354 2.783664 9.543611 -8.619991 -0.495287 -19.995947 -9.448416 -1.561228 
-0.607504 43.787117 -0.016606 -8.809940 -2.866230 -0.034552 -20.538900 2.538870 0.874047 19.492201 0.322210 0.833857 28.051500 -0.724751 -5.647110 15.895000 2.393460 -1.983320 2.000000 -2.000000 0.000000 90.797401 167.399994 0.907683 51.016102 -0.300858 0.106328 0.067912 -0.064443 -160.602997 -2.000000 2.000000 0.000000 82.287697 39.955200 -160.824997 -72.119698 0.256826 0.130119 -0.157899 0.159759 153.869003 0.520911 2.957274 -6.730573 27.643490 3.787528 1.827361 -20.031618 14.572092 3.975373 11.005967 4.151330 2.500997 9.522641 -8.613922 -0.494317 -20.005295 -9.393186 -1.562623 
-0.665861 43.791618 -0.014658 -8.789290 -2.721620 0.225318 -20.528799 2.540130 0.905230 19.589800 0.478448 0.851301 28.005301 -0.794177 -5.715640 15.836000 2.365420 -2.021060 2.000000 -2.000000 0.000000 90.817001 167.389999 0.995551 51.182098 -0.300550 0.106577 0.068133 -0.064944 -160.798996 -2.000000 2.000000 0.000000 82.210297 40.073200 -161.195007 -71.728996 0.257712 0.129830 -0.157005 0.159416 154.210999 0.460413 2.938524 -6.708981 27.573471 3.789378 1.808786 -19.839960 14.386806 3.844461 10.982911 4.119253 2.207551 9.532754 -8.602113 -0.484077 -20.038401 -9.332435 -1.562430 
-0.690686 43.789303 -0.017226 -8.808770 -2.711820 0.420065 -20.538300 2.534290 0.917467 19.580000 0.458918 0.851552 27.986200 -0.759749 -5.708080 15.816800 2.394310 -2.015880 2.000000 -2.000000 0.000000 90.865799 167.330994 1.044240 51.299301 -0.300332 0.106752 0.068199 -0.065094 -160.856995 -2.000000 2.000000 0.000000 81.733299 40.746799 -161.067001 -71.143097 0.259037 0.129385 -0.158129 0.159846 153.781006 0.439797 3.007195 -6.644630 27.563053 3.793781 1.809882 -19.710369 14.200219 3.769294 11.008691 4.185960 2.014539 9.568812 -8.635441 -0.486621 -20.079515 -9.339789 -1.560839 
